<svg width="110.34mm" height="95.177mm" version="1.1" viewBox="0 0 110.34 95.177" xmlns="http://www.w3.org/2000/svg">
 <g transform="translate(-39.756 -179.68)">
  <g stroke="#1b3a31" stroke-width="2.53">
   <path d="m109.94 212.14c-0.79117 5e-3 -1.7192 0.34855-2.5683 1.0263s-1.2158 1.087-1.9963 2.5585-1.4864 4.8931-1.633 7.815c-0.14662 2.9219 0.6541 4.1213 1.8795 5.348 1.2254 1.2267 2.7158 1.5751 4.4654 1.5751 1.7496 1e-5 3.6902-0.45281 4.9274-1.6914 1.2371-1.2386 1.8004-2.9499 1.5549-5.5588s-0.84384-6.1165-1.7368-7.6192-1.4207-1.9772-2.2691-2.6324-1.8324-0.82614-2.6236-0.82114z" fill="none"/>
   <path d="m76.008 212.13c-0.79117 5e-3 -1.7192 0.34855-2.5683 1.0263s-1.2158 1.087-1.9963 2.5585-1.4864 4.8931-1.633 7.815c-0.14662 2.9219 0.65411 4.1213 1.8795 5.348 1.2254 1.2267 2.7158 1.5751 4.4654 1.5751 1.7496 1e-5 3.6902-0.4523 4.9273-1.6909 1.2371-1.2386 1.8004-2.9504 1.555-5.5594s-0.84385-6.1165-1.7368-7.6192-1.4207-1.9767-2.2691-2.6319-1.8324-0.82666-2.6236-0.82166z" fill="none"/>
   <g>
    <path d="m108.71 267.4 7.0758-5.9107 14.039-4.0236 10.618-12.331 2.0371-8.4326-2.6371-2.558 8.8677-8.7188-5.0638-21.604-11.243-6.5758-2.4396-6.8947-18.349-9.3338-19.198 4.455-5.6219-3.1822-24.212 5.6815-4.6229 9.0292-14.55 5.6999-2.3296 23.129 8.061 7.584-2.3564 1.9115 1.3222 9.4123 12.446 13.538 12.798 3.7187 6.3559 5.6399-1.795 5.9576 32.914-0.0236z" fill="#3e7d63"/>
    <path d="m92.521 186.12-42.959 47.194 44.746 30.266 45.013-29.46z" fill="#64a98a"/>
    <path d="m109.94 212.14c0.79117-5e-3 1.7752 0.16595 2.6236 0.82114s1.3761 1.1298 2.2691 2.6324 1.4914 5.0102 1.7368 7.6192-0.31782 4.3203-1.5549 5.5588c-1.2371 1.2386-3.1778 1.6914-4.9274 1.6914-1.7496 0-3.24-0.34836-4.4654-1.5751-1.2254-1.2267-2.0261-2.4261-1.8795-5.348 0.14661-2.9219 0.8525-6.3435 1.633-7.815s1.1472-1.8808 1.9963-2.5585 1.7772-1.0212 2.5683-1.0263z" fill="#cbe9cd"/>
    <path d="m76.008 212.13c0.79117-5e-3 1.7752 0.16647 2.6236 0.82166s1.3761 1.1292 2.2691 2.6319 1.4914 5.0102 1.7368 7.6192-0.31783 4.3208-1.555 5.5594c-1.2371 1.2386-3.1778 1.6909-4.9273 1.6909-1.7496 0-3.24-0.34836-4.4654-1.5751-1.2254-1.2267-2.0261-2.4261-1.8795-5.348 0.14661-2.9219 0.85251-6.3435 1.633-7.815s1.1472-1.8808 1.9963-2.5585 1.7772-1.0212 2.5683-1.0263z" fill="#cbe9cd"/>
   </g>
  </g>
 </g>
</svg>
